<?xml version="1.0" ?><!DOCTYPE svg  PUBLIC '-//W3C//DTD SVG 1.1//EN'  'http://www.w3.org/Graphics/SVG/1.1/DTD/svg11.dtd'><svg enable-background="new 0 0 128 128" version="1.1" viewBox="0 0 128 128" xml:space="preserve" xmlns="http://www.w3.org/2000/svg" xmlns:xlink="http://www.w3.org/1999/xlink"><g id="Layer_1"><rect fill="#F4F5F5" height="1520" opacity="0" width="727.938" x="-59.984" y="-351"/></g><g id="Layer_2"><g><circle cx="64" cy="64" fill="#6E9583" r="64"/><g><defs><circle cx="64" cy="64" id="SVGID_3_" r="64"/></defs><clipPath id="SVGID_2_"><use overflow="visible" xlink:href="#SVGID_3_"/></clipPath><polygon clip-path="url(#SVGID_2_)" fill="#648778" points="93.572,29.677 128,64 128,128 54.36,128 33.341,106.906    "/></g><path d="M84.044,20H36.018C33.579,20,32,22.11,32,24.549v78.903c0,2.439,1.579,4.549,4.018,4.549h55.989    c2.439,0,4.018-2.11,4.018-4.549V32.143L84.044,20z" fill="#F1F1F1"/><g><defs><path d="M84.044,20H36.018C33.579,20,32,22.11,32,24.549v78.903c0,2.439,1.579,4.549,4.018,4.549h55.989      c2.439,0,4.018-2.11,4.018-4.549V32.143L84.044,20z" id="SVGID_5_"/></defs><clipPath id="SVGID_4_"><use overflow="visible" xlink:href="#SVGID_5_"/></clipPath><g clip-path="url(#SVGID_4_)"><polygon fill="#DDE1F1" points="50.948,67.621 65.539,82.042 42.971,83.087 49.777,90 42.971,91.087 49.277,97.555       42.971,99.087 53.027,109.305 97.684,109.305 97.684,75.707 97.075,54.055 81.059,37.758 70.97,44.918 62.684,35.107     "/></g></g><path d="M88.186,32.138l7.839,0.005L84.044,20v7.96C84.044,30.398,85.769,32.138,88.186,32.138z" fill="#C2DFC9"/><path d="M84,83.5H44c-0.828,0-1.5-0.672-1.5-1.5s0.672-1.5,1.5-1.5h40c0.828,0,1.5,0.672,1.5,1.5    S84.828,83.5,84,83.5z" fill="#495260"/><path d="M84,91.5H44c-0.828,0-1.5-0.672-1.5-1.5s0.672-1.5,1.5-1.5h40c0.828,0,1.5,0.672,1.5,1.5    S84.828,91.5,84,91.5z" fill="#495260"/><path d="M84,99.5H44c-0.828,0-1.5-0.672-1.5-1.5s0.672-1.5,1.5-1.5h40c0.828,0,1.5,0.672,1.5,1.5    S84.828,99.5,84,99.5z" fill="#495260"/><g><path d="M69.568,31.844l-1.319,11.303c2.314,0.88,4.242,2.728,5.132,5.245c0.573,1.619,0.631,3.292,0.274,4.851     l10.257,4.895c0.527,0.252,1.155-0.023,1.329-0.581c1.308-4.188,1.323-8.819-0.253-13.273     c-2.379-6.723-7.827-11.477-14.212-13.254C70.21,30.872,69.636,31.26,69.568,31.844z" fill="#0E9CD9"/><path d="M66.68,59.901c-3.653,0.668-7.398-1.12-9.176-4.38c-1.094-2.006-1.312-4.174-0.858-6.157L46.39,44.469     c-0.527-0.251-1.155,0.023-1.329,0.58c-1.286,4.118-1.322,8.663,0.175,13.049c3.701,10.842,15.624,16.783,26.503,13.191     c4.655-1.537,8.399-4.531,10.911-8.3c0.324-0.486,0.141-1.147-0.385-1.398l-10.257-4.896     C70.751,58.296,68.929,59.49,66.68,59.901z" fill="#E95037"/><path d="M62.239,43.074c0.734-0.26,1.479-0.405,2.22-0.464l1.316-11.275c0.067-0.576-0.389-1.08-0.968-1.071     c-2.218,0.035-4.469,0.421-6.676,1.202c-4.455,1.576-8.045,4.5-10.479,8.151c-0.324,0.486-0.142,1.147,0.385,1.399l10.257,4.895     C59.282,44.654,60.62,43.647,62.239,43.074z" fill="#69B32D"/><g><defs><path d="M69.695,30.76l-1.446,12.387c2.314,0.88,4.242,2.728,5.132,5.245c0.573,1.619,0.631,3.292,0.274,4.851       l10.257,4.895c0.527,0.252,1.155-0.023,1.329-0.581c1.308-4.188,1.323-8.819-0.253-13.273       C82.476,37.185,76.541,32.281,69.695,30.76z M66.68,59.901c-3.653,0.668-7.398-1.12-9.176-4.38       c-1.094-2.006-1.312-4.174-0.858-6.157L46.39,44.469c-0.527-0.251-1.155,0.023-1.329,0.58       c-1.286,4.118-1.322,8.663,0.175,13.049c3.701,10.842,15.624,16.783,26.503,13.191c4.655-1.537,8.399-4.531,10.911-8.3       c0.324-0.486,0.141-1.147-0.385-1.398l-10.257-4.896C70.751,58.296,68.929,59.49,66.68,59.901z M62.239,43.074       c0.734-0.26,1.479-0.405,2.22-0.464l1.316-11.275c0.067-0.576-0.389-1.08-0.968-1.071c-2.218,0.035-4.469,0.421-6.676,1.202       c-4.455,1.576-8.045,4.5-10.479,8.151c-0.324,0.486-0.142,1.147,0.385,1.399l10.257,4.895       C59.282,44.654,60.62,43.647,62.239,43.074z" id="SVGID_7_"/></defs><clipPath id="SVGID_6_"><use overflow="visible" xlink:href="#SVGID_7_"/></clipPath><circle clip-path="url(#SVGID_6_)" cx="65.151" cy="51.304" fill="#FFFFFF" opacity="0.4" r="12.507"/></g></g></g></g></svg>