<svg width="200" height="200" xmlns="http://www.w3.org/2000/svg">

 <g>
  <title>background</title>
  <rect fill="none" id="canvas_background" height="202" width="202" y="-1" x="-1"/>
  <g display="none" overflow="visible" y="0" x="0" height="100%" width="100%" id="canvasGrid">
   <rect fill="url(#gridpattern)" stroke-width="0" y="19.622145" x="61.378059" height="400" width="580"/>
  </g>
 </g>
 <g>
  <title>Layer 1</title>
  <g stroke="null" id="svg_62">
   <g stroke="null" transform="matrix(1.861673452141284,0,0,1.861673452141284,-13127.843153378715,-13264.447356877272) " id="svg_61">
    <title stroke="null" transform="translate(-0.2685726284980774,9.094947017729282e-13) translate(3.2228715419769287,9.094947017729282e-13) translate(9.094947017729282e-13,9.094947017729282e-13) translate(-6.483190536499023,-3.2415952682495117) translate(-47.84577178955078,-49.380184173583984) translate(-9.094947017729282e-13,-9.094947017729282e-13) translate(-434.96026611328125,-337.7338562011719) translate(7279,0) translate(0,7369) ">Layer 1</title>
    <style stroke="null" transform="translate(-0.2685726284980774,9.094947017729282e-13) translate(3.2228715419769287,9.094947017729282e-13) translate(9.094947017729282e-13,9.094947017729282e-13) translate(-6.483190536499023,-3.2415952682495117) translate(-47.84577178955078,-49.380184173583984) translate(-9.094947017729282e-13,-9.094947017729282e-13) translate(-434.96026611328125,-337.7338562011719) translate(7279,0) translate(0,7369) " type="text/css">.st0{fill:#205081;}</style>
    <g stroke="null" id="svg_46">
     <g stroke="null" id="svg_47" transform="matrix(0.6944444113307533,0,0,0.6944444113307533,-343.74998807907116,15.277777247958717) ">
      <path stroke="null" class="st0" d="m10655.408403,10310.598235c2.60001,1.6 8.20001,3.3 15.9,3.3l0,0c3.70001,0 7.4,-0.4 10.4,-1.2c0.3,-0.1 0.6,-0.4 0.6,-0.7c0.5,-5.8 2.1,-11.6 4.8,-16.8c0.1,-0.2 0.1,-0.4 0,-0.6c-0.1,-0.2 -0.2,-0.4 -0.4,-0.5c-3,-1.4 -6.2,-3.3 -9.1,-5.4c-4.5,-3.2 -8.2,-6.9 -10.9,-10.6c-0.2,-0.3 -0.5,-0.4 -0.9,-0.3c-0.29999,0.1 -0.6,0.3 -0.6,0.7c-1,5.1 -2.4,10.3 -4.1,15.7c-1.8,5.5 -3.8,10.6 -6,15.4c-0.2,0.3 -0.1,0.8 0.3,1z" id="svg_55"/>
      <path stroke="null" class="st0" d="m10688.708403,10339.798235c0.2,-0.3 0.3,-0.7 0.1,-1c-2.4,-4 -4.2,-8.3 -5.29999,-12.9c-0.3,-1.1 -0.5,-2.3 -0.70001,-3.5c0,-0.2 -0.2,-0.4 -0.29999,-0.6c-0.20001,-0.1 -0.4,-0.2 -0.60001,-0.1c-3.29999,0.6 -6.89999,1 -10.5,1c-5.5,0 -10.7,-0.7 -15.1,-2.2c-0.29999,-0.1 -0.7,0 -0.9,0.2c-0.2,0.2 -0.29999,0.6 -0.1,0.9c2.20001,4.7 4.20001,9.8 5.9,15.1c1.8,5.5 3.2,10.8 4.2,16c0.10001,0.4 0.4,0.7 0.8,0.7c0,0 0,0 0.1,0c3.1,-0.3 8.6,-2.1 14.8,-6.7c2.9,-2 5.6,-4.5 7.6,-6.9z" id="svg_54"/>
      <path stroke="null" class="st0" d="m10734.108413,10249.098235c-0.3,-0.6 -0.8,-1 -1.4,-1.1l-39.8,-8.3c-0.8,-0.2 -1.6,0.2 -2.1,0.9c-0.4,0.7 -0.4,1.6 0.1,2.2l6,8.1c-3.3,2.9 -6.9,5.8 -10.7,8.6c-4.6,3.4 -9.3,6.4 -13.9,8.9c-0.4,0.2 -0.5,0.7 -0.4,1.1c1.2,2.8 4.7,7.5 10.9,12c3,2.2 6.2,4 9.1,5.2c0.1,0 0.2,0.1 0.3,0.1c0.2,0 0.5,-0.1 0.6,-0.3c4.1,-4.8 9.1,-8.6 14.8,-11.3l2,10.1c0.2,0.8 0.79999,1.4 1.6,1.6c0.1,0 0.2,0 0.3,0c0.7,0 1.29999,-0.4 1.7,-1l20.7,-35c0.4,-0.6 0.5,-1.3 0.2,-1.8z" id="svg_53"/>
      <path stroke="null" class="st0" d="m10710.008413,10356.898235c-5.5,-2.2 -10.5,-5.6 -14.70001,-9.8c-0.2,-0.2 -0.4,-0.2 -0.6,-0.2c-0.2,0 -0.4,0.1 -0.6,0.3c-2.3,2.4 -5,4.9 -7.9,7c-4.5,3.2 -9.1,5.7 -13.4,7.1c-0.29999,0.1 -0.5,0.4 -0.6,0.7c0,0.3 0.1,0.6 0.4,0.8c4.5,2.5 9.1,5.5 13.7,8.8c4.70001,3.4 9.1,7 13,10.7c0.20001,0.1 0.4,0.2 0.6,0.2c0.20001,0 0.4,-0.1 0.5,-0.2c2.4,-2.1 5.70001,-6.9 8.10001,-14.2c1.2,-3.6 1.89999,-7.1 2.1,-10.3c-0.1,-0.4 -0.3,-0.8 -0.6,-0.9z" id="svg_52"/>
      <path stroke="null" class="st0" d="m10798.908403,10320.198235c-2.6,-1.6 -8.2,-3.3 -15.89999,-3.3c-3.8,0 -7.4,0.4 -10.4,1.2c-0.3,0.1 -0.6,0.4 -0.6,0.7c-0.5,5.8 -2.10001,11.6 -4.8,16.8c-0.1,0.2 -0.1,0.4 0,0.7c0.1,0.2 0.2,0.4 0.4,0.5c3,1.4 6.2,3.3 9.1,5.4c4.5,3.2 8.2,6.9 10.9,10.6c0.2,0.2 0.4,0.3 0.7,0.3c0.1,0 0.1,0 0.2,0c0.3,-0.1 0.6,-0.3 0.6,-0.7c1,-5.1 2.4,-10.3 4.1,-15.7c1.8,-5.5 3.8,-10.6 6,-15.4c0.2,-0.5 0.1,-0.9 -0.3,-1.1l-0.00001,0z" id="svg_51"/>
      <path stroke="null" class="st0" d="m10765.608413,10290.898235c-0.20001,0.3 -0.3,0.7 -0.1,1c2.39999,4 4.2,8.3 5.29999,12.9c0.3,1.1 0.5,2.3 0.70001,3.5c0,0.2 0.2,0.4 0.29999,0.6c0.20001,0.1 0.4,0.2 0.6,0.1c3.3,-0.6 6.9,-1 10.5,-1c5.5,0 10.70001,0.7 15.10001,2.2c0.1,0 0.2,0 0.29999,0c0,0 0,0 0,0c0.5,0 0.8,-0.4 0.8,-0.8c0,-0.2 -0.1,-0.4 -0.2,-0.5c-2.2,-4.6 -4.1,-9.7 -5.8,-15c-1.8,-5.5 -3.2,-10.8 -4.2,-16c-0.1,-0.4 -0.5,-0.7 -0.9,-0.7c-3.1,0.3 -8.5,2.1 -14.8,6.7c-2.9,2.1 -5.6,4.6 -7.6,7l0.00001,0z" id="svg_50"/>
      <path stroke="null" class="st0" d="m10744.308403,10274.098235c5.5,2.2 10.5,5.6 14.70001,9.8c0.2,0.2 0.39999,0.2 0.6,0.2c0,0 0,0 0,0c0.2,0 0.4,-0.1 0.6,-0.3c2.3,-2.4 5,-4.9 7.9,-7c4.5,-3.2 9.1,-5.7 13.4,-7.1c0.29999,-0.1 0.5,-0.4 0.6,-0.7c0,-0.3 -0.1,-0.6 -0.4,-0.8c-4.5,-2.5 -9.1,-5.5 -13.7,-8.8c-4.70001,-3.4 -9.10001,-7 -13,-10.7c-0.3,-0.3 -0.8,-0.3 -1.10001,0c-2.39999,2.1 -5.7,6.9 -8.1,14.2c-1.2,3.6 -1.9,7.1 -2.1,10.3c0.1,0.4 0.3,0.8 0.6,0.9z" id="svg_49"/>
      <path stroke="null" class="st0" d="m10771.508413,10349.298235c-3,-2.2 -6.20001,-4 -9.10001,-5.2c-0.29999,-0.1 -0.7,0 -0.89999,0.2c-4.10001,4.8 -9.10001,8.6 -14.8,11.3l-2,-10.1c-0.2,-0.8 -0.8,-1.4 -1.6,-1.6c-0.8,-0.1 -1.6,0.2 -2,0.9l-20.70001,35c-0.29999,0.5 -0.39999,1.2 -0.1,1.8c0.3,0.6 0.8,1 1.4,1.1l39.8,8.3c0.1,0 0.3,0 0.4,0c1.1,0 2,-0.9 2,-2c0,-0.5 -0.2,-1 -0.5,-1.4l-5.8,-8c3.3,-2.9 6.9,-5.8 10.7,-8.6c4.6,-3.4 9.3,-6.4 13.9,-8.9c0.4,-0.2 0.5,-0.7 0.4,-1.1c-1.4,-2.5 -4.9,-7.2 -11.1,-11.7l0.00001,0z" id="svg_48"/>
     </g>
    </g>
   </g>
  </g>
 </g>
</svg>