<?xml version="1.0" encoding="utf-8"?>
<!-- Generator: Adobe Illustrator 17.0.0, SVG Export Plug-In . SVG Version: 6.00 Build 0)  -->
<!DOCTYPE svg PUBLIC "-//W3C//DTD SVG 1.1//EN" "http://www.w3.org/Graphics/SVG/1.1/DTD/svg11.dtd">
<svg version="1.1" id="Layer_1" xmlns="http://www.w3.org/2000/svg" xmlns:xlink="http://www.w3.org/1999/xlink" x="0px" y="0px"
	 width="283.46px" height="283.46px" viewBox="0 0 283.46 283.46" enable-background="new 0 0 283.46 283.46" xml:space="preserve">
<g>
	<polyline fill="#FFDD00" points="182.575,179.219 204.106,141.949 194.694,125.716 175.45,133.869 180.138,141.949 
		163.903,170.094 182.575,179.219 	"/>
	<rect x="105.882" y="86.603" fill="#A7D1A3" width="41.898" height="20.717"/>
	<polygon fill="#FFDD00" points="151.946,176.58 114.303,176.58 114.303,176.581 99.718,176.581 99.718,162.799 79,162.799 
		79,197.297 117.969,197.297 117.969,197.297 151.946,197.297 	"/>
	<polygon fill="#E30613" points="79,86.604 79,123.114 99.718,123.114 99.718,107.321 107.095,107.321 107.095,86.604 	"/>
	<rect x="79" y="137.687" fill="#E0C305" width="20.718" height="25.56"/>
	<rect x="79" y="121.768" fill="#FFDD00" width="20.718" height="16.592"/>
	<polygon fill="#FFDD00" points="147.681,86.604 147.681,107.321 160.138,107.321 164.763,115.312 183.514,106.408 172.107,86.604 	
		"/>
	<polygon fill="#3DAC47" points="160.153,176.58 149.075,176.58 149.075,197.297 172.122,197.297 185.95,173.344 167.953,163.032 	
		"/>
	<polygon fill="#E0C305" points="176.794,136.125 163.372,112.906 181.27,102.522 194.731,125.84 	"/>
</g>
</svg>
