<svg width="841.95" height="841.95" xmlns="http://www.w3.org/2000/svg">
 <defs>
  <style>.cls-1{fill:#fff;}.cls-2{fill:#ff0000;}</style>
 </defs>
 <title>All_</title>
 <g>
  <circle cx="440" cy="400" r="390" stroke="white" stroke-width="20" fill="none"/>
  <circle cx="440" cy="400" r="380" fill="black"/>
  <path id="svg_2" d="m705.985,258.675a4.84,4.84 0 0 0 -1.68,-0.6a124.41,124.41 0 0 1 19.39,45.07c-3.31249,-6.43994 -5.74,-8.6 -9,-12.61c-9.44,-11.63 -21.4,-20.25 -34.13,-27.88c-6.3,-3.77 -12.51,-8 -19.91,-9.09c-9.37,-1.39 -18.82,-2.59 -28.28,-3.06c-7.28,-0.37 -14.63,0.51 -21.94,0.83a3.18,3.18 0 0 1 -3,-1.25c-12.72,-15.32 -27.32,-28 -47,-33.63c-7.2,-2 -14.57,-2.53 -22,-2.58c-9.87,-0.06 -19.74,0.07 -29.61,0.13c-0.64,0 -1.28,0.11 -2.32,0.21a30.85,30.85 0 0 0 2.09,5.07c4.62,7.17 8.8,14.73 14.25,21.22c5.15,6.13 11.45,11.41 17.7,16.5a73.64,73.64 0 0 0 15.75,10.27c5.09,2.3 10.91,3.28 16.52,4.06c10,1.4 20.19,2.23 30.51,3.32c-2.32,0.68 -4.57,1.45 -6.88,2a117.57,117.57 0 0 1 -28.61,3.79a62.35,62.35 0 0 1 -28.64,-7.17a19.94,19.94 0 0 1 -2.6,-1.69c-0.83,-0.62 -1.6,-1.32 -2.6,-2.16c-2.3,1.94 -4.64,3.85 -6.91,5.84a478.23,478.23 0 0 0 -37.54,36.72a5.89,5.89 0 0 0 -1.23,3.34c-0.37,5.84 -0.6,11.69 -0.82,17.55a10.18,10.18 0 0 1 -3.89,7.62c-7.91,6.95 -16.08,13.69 -23.39,21.24c-18.68,19.29 -37,38.92 -55.34,58.56c-4.09,4.38 -7.62,9.3 -11.26,14.07a7.37,7.37 0 0 1 -6.37,3.32c-4.95,-0.07 -8.6,2.77 -11.61,6.22c-6.15,7 -12.19,14.18 -18,21.51c-2.84,3.59 -3.38,8.21 -3.68,12.66c-1,14.07 4.43,25.93 13.06,36.58c7.39,9.11 16.54,16.25 26.5,22.2c11.32,6.76 23.05,12.82 34.52,19.32c3.7,2.1 7.44,2.13 11.39,1.32c10.7,-2.21 18.78,-8.49 25.71,-16.53c1.75,-2 3.41,-4.12 4.95,-6.3a36.39,36.39 0 0 1 18.4,-13.76c7.36,-2.51 14.81,-4.77 22.11,-7.45c9,-3.32 17.83,-7.38 27,-10.33c12,-3.86 24.2,-7 36.32,-10.38l2.9,-0.82c-10.5,-8 -19.58,-16.84 -26.25,-27.61c4.64,3.78 9.09,8 14.15,11.37c11.85,7.81 25.1,9.4 39,7.82a154.81,154.81 0 0 0 48.64,-14c11.36,-5.35 22.37,-11.34 31.65,-19.94s18.9,-17.4 25.77,-28.45c5.7,-9.17 8,-19.22 8.13,-29.87a3.87,3.87 0 0 1 0.69,-2.36a3.59,3.59 0 0 1 0.55,1.18c0.68,11.79 1.48,23.59 -1.66,35.18c-3.33,12.3 -10,22.72 -18.28,32.23c-8,9.21 -17.3,17.1 -26.71,24.82c-8.48,6.95 -17.62,12.82 -28.27,16a4.83,4.83 0 0 1 -1.06,0.34c-4.21,0.22 -5.56,3.25 -6.55,6.64c-3.8,13 -7.95,25.94 -14.49,37.94c-5.75,10.56 -13.69,19.36 -22.3,27.59c-23.53,22.49 -50.62,39.24 -81.67,49.07a182.51,182.51 0 0 1 -40.19,8.29c-9.53,0.78 -19.11,1.51 -28.65,1.4a212.83,212.83 0 0 1 -76.52,-15.47c-22.66,-9 -45.46,-17.6 -68.22,-26.32c-5.63,-2.16 -11.26,-4.43 -17.05,-6.08c-8,-2.29 -16.3,-2.16 -24.52,-1.41c-11.93,1.09 -23.56,3.81 -35.13,6.78a7.81,7.81 0 0 1 -1.15,0a13.69,13.69 0 0 1 1.12,-2.08c3.43,-4 7.94,-6.65 12.55,-9.06c16.51,-8.67 34.14,-13.88 52.48,-16.88c18.6,-3 37.34,-3.6 56.13,-3.48c3.09,0 6.17,0 9.36,0a2.35,2.35 0 0 0 -0.35,-0.63c-6,-5.76 -12,-11.51 -17.93,-17.28a353.08,353.08 0 0 0 -116.82,-75c-8.31,-3.27 -16.49,-6.89 -24.93,-9.74c-17.12,-5.79 -34.87,-8.42 -52.87,-9.16c-13.49,-0.55 -27,-0.64 -40.49,-0.87c-31.6,-0.55 -61.39,7 -89.87,20.28c-3.62,1.69 -7.13,3.62 -10.72,5.38a7.09,7.09 0 0 1 -2,0.33a10.54,10.54 0 0 1 0.25,-2c2.42,-7.24 7.7,-12.39 13,-17.51c4,-3.86 8,-7.68 12.22,-11.32c4,-3.45 8.15,-6.66 12.23,-10c2.58,-2.1 5.07,-4.32 7.77,-6.25c2.54,-1.8 5.32,-3.28 8,-4.92c1,-0.64 2,-1.41 3.05,-2c4.8,-2.76 9.5,-5.7 14.45,-8.16c11,-5.46 22,-10.94 33.24,-15.94a207.35,207.35 0 0 1 50.75,-15.32c6.51,-1.08 13.11,-1.56 19.64,-2.51s13,-2.33 19.52,-3.21c5.85,-0.78 11.76,-1.17 17.64,-1.69c5.58,-0.48 11.16,-1.1 16.76,-1.29c9.11,-0.3 18.24,-0.33 27.36,-0.41c3.9,0 7.81,-0.1 11.7,0.12c5.21,0.31 10.4,0.9 15.6,1.32c4.45,0.36 8.91,0.52 13.35,1c3.47,0.38 6.89,1.14 10.35,1.68c4.06,0.63 8.14,1.13 12.18,1.82c2.49,0.43 4.93,1.13 7.4,1.67c3.28,0.7 6.58,1.36 9.87,2c0.36,0.07 0.74,0.08 1.09,0.18q6.19,1.9 12.4,3.83c3.55,1.12 7.09,2.29 10.64,3.4a16,16 0 0 0 2.07,0.38l0.26,-0.5a8.33,8.33 0 0 0 -1.14,-1a353.91,353.91 0 0 1 -46.61,-32.72c-4.19,-3.48 -7.69,-7.78 -11.4,-11.81c-6,-6.54 -12.33,-12.84 -17.79,-19.81a167.22,167.22 0 0 1 -29.06,-55.43a116.28,116.28 0 0 1 -4.42,-28.48c-0.13,-3.2 0,-6.4 0,-9.51c12.51,18.94 30.06,31 51.43,37.74c6.32,2 13,2.9 19.56,4.05c7.14,1.26 14.31,2.39 21.51,3.27c5.07,0.63 10.21,0.71 15.31,1.11c17.91,1.42 34.93,-2.54 51.62,-8.48c12.84,-4.58 25.74,-9.07 37.48,-16.2a58.47,58.47 0 0 0 14,-11.59c1.46,-1.69 1.19,-2.84 -0.8,-3.11c-19.9,-2.71 -37.39,-11.49 -53.69,-22.49c-19,-12.81 -34.8,-28.82 -44.73,-49.91a54.48,54.48 0 0 1 -5.23,-19.83l6.05,3.16a141.8,141.8 0 0 0 45.76,14.57c7.86,1.1 15.71,2.28 23.6,3.08a87.88,87.88 0 0 0 26.8,-1.76c8.41,-1.73 16.78,-3.77 25.06,-6c9.93,-2.71 19.84,-5.54 29.6,-8.77c10,-3.32 19.77,-7.62 29.87,-10.72c21.35,-6.56 43.26,-9.92 65.63,-8.87c34.56,1.62 65.93,12 92.26,35.29a134.23,134.23 0 0 1 25,29.68c4.67,7.49 10,14.65 13.88,22.52c6.25,12.69 11.63,25.8 17.16,38.83" class="cls-2"/>
  <path id="svg_4" d="m550.76,307.28c1,-0.09 2,0 3.19,0c-0.49,11.28 -3.52,21.49 -11.46,29.07a39.83,39.83 0 0 1 -20.85,10.15l-0.7,-0.61c0.79,-3 1.45,-6.09 2.4,-9.05a57.38,57.38 0 0 1 15.05,-23.55a20.24,20.24 0 0 1 12.37,-6.01z" class="cls-2"/>
  <path id="svg_5" d="m400.65,502.9l-0.6,0.72a10.21,10.21 0 0 1 -7.2,-1.79a22.67,22.67 0 0 1 -10.17,-14.28c-0.45,-2 0.52,-4.23 0.89,-6.7c3.22,1.2 5.55,2.68 7.05,5.16c3.39,5.6 6.7,11.26 10.03,16.89z" class="cls-2"/>
 </g>
</svg>