<svg xmlns="http://www.w3.org/2000/svg" viewBox="0 0 282.39 280.95"><defs><style>.cls-1{fill:#fecf5d;}.cls-2,.cls-3,.cls-4,.cls-5,.cls-6{fill:none;stroke-miterlimit:10;stroke-width:54px;}.cls-2{stroke:#d062bb;}.cls-3{stroke:#fa5b45;}.cls-4{stroke:#fecf5d;}.cls-5{stroke:#aaa;}.cls-6{stroke:#98cc6a;}</style></defs><path d="M266.34 127.07a4.71 4.71 0 0 1-3.11-2.73c-10.93 0-21.76-.89-32.25-3.71v134.53a25.41 25.41 0 1 0 50.82 0V131.27a127.66 127.66 0 0 1-15.46-4.2z" class="cls-1"/><path d="M146.92 27.25c48.67 2.6 90.88 36.78 103.74 80.46" class="cls-3"/><path d="M251.62 110.81c2.79 9.26 3.77 19.09 3.77 29.18 0 44.24-24.41 83-62 101.48" class="cls-4"/><path d="M190.57 242.93a119.54 119.54 0 0 1-71 9.18" class="cls-5"/><path d="M98.85 35a114.07 114.07 0 0 1 42.08-8c.84 0 1.92.06 2.92.11" class="cls-2"/><path d="M116.27 251.44c-50.13-9.28-89.26-56.93-89.26-111.2 0-46.64 30.8-87.67 69.21-104.14" class="cls-6"/></svg>