<svg viewBox="0 0 60 55" xmlns="http://www.w3.org/2000/svg">
    <g fill="none" fill-rule="evenodd">
        <path d="m59.682 31.392l-3.35-10.26-6.627-20.352c-.34-1.04-1.821-1.04-2.173 0l-6.627 20.339h-22.02l-6.627-20.339c-.34-1.04-1.821-1.04-2.173 0l-6.616 20.339-3.35 10.272c-.303.932.025 1.96.826 2.541l28.951 20.968 28.951-20.968c.801-.581 1.141-1.609.837-2.541" fill="#fc6d26"/>
        <path d="m29.901 54.887l11.01-33.767h-22.02z" fill="#e24329"/>
        <path d="m29.893 54.887l-11.01-33.767h-15.417z" fill="#fc6d26"/>
        <path d="m3.462 21.13l-3.35 10.26c-.303.931.025 1.96.826 2.541l28.951 20.968-26.426-33.769" fill="#fca326"/>
        <path d="m3.466 21.13h15.429l-6.64-20.339c-.34-1.041-1.821-1.041-2.173 0l-6.616 20.339" fill="#e24329"/>
        <path d="m29.901 54.887l11.01-33.767h15.429z" fill="#fc6d26"/>
        <path d="m56.33 21.13l3.35 10.26c.303.931-.024 1.96-.826 2.541l-28.951 20.956 26.426-33.757" fill="#fca326"/>
        <path d="m56.34 21.13h-15.428l6.627-20.339c.34-1.041 1.821-1.041 2.173 0l6.628 20.339" fill="#e24329"/>
    </g>
</svg>
